<?xml version="1.0" encoding="utf-8"?>
<svg version="1.1" id="annotation0" xmlns="http://www.w3.org/2000/svg" xmlns:xlink="http://www.w3.org/1999/xlink" x="0px" y="0px"
	 viewBox="0 0 18 18" style="enable-background:new 0 0 18 18;" xml:space="preserve">
<style type="text/css">
	.st0{fill:#000000;}
	.st1{fill:none;stroke:#FFFFFF;stroke-width:0.6207;stroke-miterlimit:10;}
	.st2{fill:#FFFFFF;}
</style>
<g>
	<circle class="st0" cx="9" cy="9" r="9"/>
	<circle class="st1" cx="9" cy="9" r="8.1"/>
	<g>
		<path class="st2" d="M4,7.3c0.5,0,0.9,0.1,1.2,0.4c0.2,0.2,0.3,0.5,0.2,0.9c-0.1,0.2-0.3,0.2-0.6,0C4,7.8,3.7,7.4,4,7.3z M6,9.7
			c0.3-0.6,0.5-1,0.6-1s0,0.3-0.1,0.9c-0.7,2-1.1,3.4-1.3,4.1c-0.1,0.3-0.3,0.1-0.7-0.8c0-0.1-0.1-0.2-0.1-0.2
			c-0.2-0.4-0.1-0.5,0-0.6C4.8,11.9,5.3,11.1,6,9.7z M5.5,4.9C6,4.9,6.4,5,6.6,5.2C6.8,5.4,6.9,5.7,6.9,6C6.8,6.4,6.7,6.4,6.4,6.2
			C5.4,5.3,5.1,4.9,5.5,4.9z M11.7,6.6c0.8-0.1,1.2,0,1.3,0.3c-0.2,0.2-1,0.5-2.7,0.8c0.4,0.2,0.5,0.4,0.5,0.5
			c-0.1,0.2-0.2,0.5-0.2,1.2c0.4-0.1,0.8-0.2,1.3-0.2c0.6,0,0.8,0.1,0.7,0.3c-0.2,0.2-0.7,0.3-1.7,0.5c-0.1,0-0.2,0-0.2,0
			c0,0.1,0,0.7,0,1.8c0.7-0.1,1.4-0.2,2.2-0.3c0.2,0,0.3,0,0.3,0c0.9,0.1,1.3,0.4,1.2,0.9c0,0-0.3,0-0.7,0c-1.1-0.1-2.1-0.2-3-0.1
			c-0.9,0.1-1.9,0.2-3,0.5c-0.1,0-0.2,0-0.2,0c-0.6-0.1-0.9-0.2-0.8-0.5c0.2,0,0.4-0.1,0.7-0.1c1.3-0.1,2.2-0.2,2.7-0.3v-0.1
			c0-1.1,0-1.7,0-1.7c-0.5,0.1-1,0.1-1.5,0c-0.7,0-0.8-0.1-0.5-0.2c0,0,0.3,0,0.7-0.1c0.5-0.1,0.9-0.2,1.1-0.2c0-0.1,0-0.3,0-0.6
			c0-0.7-0.1-1-0.2-1.1C9.2,8,8.7,8,8.1,7.9C7.4,7.8,7.2,7.7,7.6,7.6c1-0.2,2.1-0.5,3.5-0.9C11.4,6.6,11.6,6.6,11.7,6.6z M9.6,4.3
			c0.5,0,1,0,1.4,0.2c0.2,0.2,0.3,0.5,0.3,0.9c-0.1,0.3-0.2,0.4-0.5,0.2c-0.6-0.4-1-0.7-1.4-1c-0.2,0-0.2-0.1-0.2-0.2
			C9.3,4.4,9.4,4.3,9.6,4.3z"/>
	</g>
</g>
</svg>
